TITLE ""
FILE "P1Q_t_0979-0988.mp3" MP3
  TRACK 01 AUDIO
    TITLE "P1Q_t_0979-0988_01"
    INDEX 01 00:00:00
  TRACK 02 AUDIO
    TITLE "P1Q_t_0979-0988_02"
    INDEX 01 00:01:16
  TRACK 03 AUDIO
    TITLE "P1Q_t_0979-0988_03"
    INDEX 01 00:01:35
  TRACK 04 AUDIO
    TITLE "P1Q_t_0979-0988_04"
    INDEX 01 00:03:67
  TRACK 05 AUDIO
    TITLE "P1Q_t_0979-0988_05"
    INDEX 01 00:04:12
  TRACK 06 AUDIO
    TITLE "P1Q_t_0979-0988_06"
    INDEX 01 00:08:67
  TRACK 07 AUDIO
    TITLE "P1Q_t_0979-0988_07"
    INDEX 01 00:09:37
  TRACK 08 AUDIO
    TITLE "P1Q_t_0979-0988_08"
    INDEX 01 00:10:40
  TRACK 09 AUDIO
    TITLE "P1Q_t_0979-0988_09"
    INDEX 01 00:10:60
  TRACK 10 AUDIO
    TITLE "P1Q_t_0979-0988_10"
    INDEX 01 00:13:27
  TRACK 11 AUDIO
    TITLE "P1Q_t_0979-0988_11"
    INDEX 01 00:13:48
  TRACK 12 AUDIO
    TITLE "P1Q_t_0979-0988_12"
    INDEX 01 00:18:04
  TRACK 13 AUDIO
    TITLE "P1Q_t_0979-0988_13"
    INDEX 01 00:18:49
  TRACK 14 AUDIO
    TITLE "P1Q_t_0979-0988_14"
    INDEX 01 00:20:09
  TRACK 15 AUDIO
    TITLE "P1Q_t_0979-0988_15"
    INDEX 01 00:20:29
  TRACK 16 AUDIO
    TITLE "P1Q_t_0979-0988_16"
    INDEX 01 00:23:13
  TRACK 17 AUDIO
    TITLE "P1Q_t_0979-0988_17"
    INDEX 01 00:23:37
  TRACK 18 AUDIO
    TITLE "P1Q_t_0979-0988_18"
    INDEX 01 00:27:58
  TRACK 19 AUDIO
    TITLE "P1Q_t_0979-0988_19"
    INDEX 01 00:28:28
  TRACK 20 AUDIO
    TITLE "P1Q_t_0979-0988_20"
    INDEX 01 00:29:28
  TRACK 21 AUDIO
    TITLE "P1Q_t_0979-0988_21"
    INDEX 01 00:29:49
  TRACK 22 AUDIO
    TITLE "P1Q_t_0979-0988_22"
    INDEX 01 00:31:13
  TRACK 23 AUDIO
    TITLE "P1Q_t_0979-0988_23"
    INDEX 01 00:31:32
  TRACK 24 AUDIO
    TITLE "P1Q_t_0979-0988_24"
    INDEX 01 00:35:60
  TRACK 25 AUDIO
    TITLE "P1Q_t_0979-0988_25"
    INDEX 01 00:36:32
  TRACK 26 AUDIO
    TITLE "P1Q_t_0979-0988_26"
    INDEX 01 00:37:41
  TRACK 27 AUDIO
    TITLE "P1Q_t_0979-0988_27"
    INDEX 01 00:37:62
  TRACK 28 AUDIO
    TITLE "P1Q_t_0979-0988_28"
    INDEX 01 00:40:22
  TRACK 29 AUDIO
    TITLE "P1Q_t_0979-0988_29"
    INDEX 01 00:40:41
  TRACK 30 AUDIO
    TITLE "P1Q_t_0979-0988_30"
    INDEX 01 00:46:06
  TRACK 31 AUDIO
    TITLE "P1Q_t_0979-0988_31"
    INDEX 01 00:46:52
  TRACK 32 AUDIO
    TITLE "P1Q_t_0979-0988_32"
    INDEX 01 00:47:75
  TRACK 33 AUDIO
    TITLE "P1Q_t_0979-0988_33"
    INDEX 01 00:48:21
  TRACK 34 AUDIO
    TITLE "P1Q_t_0979-0988_34"
    INDEX 01 00:51:21
  TRACK 35 AUDIO
    TITLE "P1Q_t_0979-0988_35"
    INDEX 01 00:51:41
  TRACK 36 AUDIO
    TITLE "P1Q_t_0979-0988_36"
    INDEX 01 00:56:03
  TRACK 37 AUDIO
    TITLE "P1Q_t_0979-0988_37"
    INDEX 01 00:56:48
  TRACK 38 AUDIO
    TITLE "P1Q_t_0979-0988_38"
    INDEX 01 00:57:63
  TRACK 39 AUDIO
    TITLE "P1Q_t_0979-0988_39"
    INDEX 01 00:58:10
  TRACK 40 AUDIO
    TITLE "P1Q_t_0979-0988_40"
    INDEX 01 01:00:44
  TRACK 41 AUDIO
    TITLE "P1Q_t_0979-0988_41"
    INDEX 01 01:00:63
  TRACK 42 AUDIO
    TITLE "P1Q_t_0979-0988_42"
    INDEX 01 01:06:72
  TRACK 43 AUDIO
    TITLE "P1Q_t_0979-0988_43"
    INDEX 01 01:07:42
  TRACK 44 AUDIO
    TITLE "P1Q_t_0979-0988_44"
    INDEX 01 01:08:73
  TRACK 45 AUDIO
    TITLE "P1Q_t_0979-0988_45"
    INDEX 01 01:09:21
  TRACK 46 AUDIO
    TITLE "P1Q_t_0979-0988_46"
    INDEX 01 01:11:52
  TRACK 47 AUDIO
    TITLE "P1Q_t_0979-0988_47"
    INDEX 01 01:11:69
  TRACK 48 AUDIO
    TITLE "P1Q_t_0979-0988_48"
    INDEX 01 01:17:05
  TRACK 49 AUDIO
    TITLE "P1Q_t_0979-0988_49"
    INDEX 01 01:17:50
  TRACK 50 AUDIO
    TITLE "P1Q_t_0979-0988_50"
    INDEX 01 01:18:59
  TRACK 51 AUDIO
    TITLE "P1Q_t_0979-0988_51"
    INDEX 01 01:19:06
  TRACK 52 AUDIO
    TITLE "P1Q_t_0979-0988_52"
    INDEX 01 01:23:39
  TRACK 53 AUDIO
    TITLE "P1Q_t_0979-0988_53"
    INDEX 01 01:23:59
  TRACK 54 AUDIO
    TITLE "P1Q_t_0979-0988_54"
    INDEX 01 01:29:02
  TRACK 55 AUDIO
    TITLE "P1Q_t_0979-0988_55"
    INDEX 01 01:29:47
  TRACK 56 AUDIO
    TITLE "P1Q_t_0979-0988_56"
    INDEX 01 01:30:57
  TRACK 57 AUDIO
    TITLE "P1Q_t_0979-0988_57"
    INDEX 01 01:31:03
  TRACK 58 AUDIO
    TITLE "P1Q_t_0979-0988_58"
    INDEX 01 01:33:28
  TRACK 59 AUDIO
    TITLE "P1Q_t_0979-0988_59"
    INDEX 01 01:33:47
  TRACK 60 AUDIO
    TITLE "P1Q_t_0979-0988_60"
    INDEX 01 01:38:44
